/* XPM */
static const char *wxwidgets_xpm[] = {
/* columns rows colors chars-per-pixel */
"60 46 193 2",
"(. c #342E34",
"4  c #8C8CFC",
"   c #FCFEFC",
"`  c #FCFD79",
"s. c #FC1E1C",
"'. c #141314",
"2. c #ECEF27",
" X c #3C3C3C",
"`. c #B4BAB8",
"u. c #CC4E4C",
":  c #6C6ED4",
"{. c #ACA6A4",
"A  c #D49A9C",
"|  c #FA9494",
"D  c #8C6EA4",
"g. c #DC0304",
"(  c #2422FC",
"a  c #CCCDFC",
"H. c #8C8B8C",
",  c #FCF2EC",
"h  c #6C6EEC",
"e  c #6463F7",
"}. c #444444",
"<. c #FC4A4C",
"3  c #A6A4FC",
".X c #BCC2C4",
"q  c #9C9CFC",
"~  c #FCB4B2",
"6. c #D4D604",
"A. c #949394",
"j. c #BCBCBC",
"V  c #DCD65C",
"F  c #3432F8",
"V. c #443E44",
"K. c #DCDAF0",
"2  c #ACACFC",
"b. c #4C4648",
"n  c #E4EA8C",
"o  c #ECEDEF",
"K  c #E7AEAC",
"E. c #CCD2CC",
"C. c #040204",
"OX c #ACAE8C",
"R. c #545454",
"S. c #746C70",
"z. c #C4BEBC",
":. c #FC6A6C",
"]  c #F4F2DA",
"p. c #D40604",
"t. c #DCC2C4",
"r  c #BCBCE6",
"N. c #F4F5E8",
"'  c #CCCE48",
">  c #B4B4FC",
"5  c #5452D8",
"n. c #A4A3A3",
"7  c #9496D4",
"a. c #F4F5F4",
"r. c #DC1414",
"l  c #B4B68C",
"Y  c #FCFAD8",
"Y. c #544E54",
"6  c #C4C4E8",
"G. c #5C5C5B",
"P  c #ECA6A4",
"x  c #DCD69C",
"d  c #4C4AFC",
"+X c #D4DADC",
"C  c #D4A2A4",
"O  c #F4ECE8",
"v  c #BCBE8C",
"U. c #ACAEB4",
"XX c #ACABAC",
"k. c #D4D4D3",
"k  c #9C66A4",
"Q. c #646463",
"5. c #D42624",
"d. c #FC1717",
"N  c #F4F7A8",
"<  c #C4BEFC",
"Q  c #FAC5C4",
"W  c #FCBCBC",
"W. c #DCDCDB",
"l. c #B4B3B5",
"o. c #F3F250",
"=. c #ECEE3B",
"$. c #FC8486",
"h. c #D80E0C",
"P. c #645E64",
"@X c #E4EAE4",
";  c #7472D0",
"z  c #D4D67C",
"|. c #6C6C6C",
"B  c #FCF992",
"Z  c #DC9E9C",
"M  c #F4F7BA",
"D. c #6C6667",
"B. c #E4E4E3",
"O. c #F4F33B",
"q. c #CCCA16",
"c  c #D4D389",
"[  c #C88284",
"/. c #242224",
"i  c #5C36AC",
"[. c #4C4B4B",
"y. c #ECEE5F",
";. c #FC7577",
"~. c #747474",
"g  c #3C3CFC",
"1. c #DC2224",
"_  c #F4F65C",
"{  c #FCDCDC",
"+. c #CCC724",
"&  c #8482DC",
"f  c #4444FC",
"*. c #ECEE78",
".  c #F4FAF5",
"!. c #7C7C7C",
"^  c #1416F8",
"#. c #FC9E9C",
"$  c #8C8AD4",
"S  c #E49A9C",
"p  c #D4AAAC",
"9. c #D01414",
"R  c #F4F674",
"c. c #CCCBCA",
"_. c #343534",
",. c #F95354",
"w. c #CC5854",
"J. c #7C767C",
"0. c #ECF017",
"i. c #FC2523",
">. c #FC5D5C",
"L. c #848484",
"3. c #FB4444",
"@. c #F4B6B4",
"j  c #E4C6C4",
"%. c #D4728C",
"1  c #ECDADC",
"#X c #7C82B4",
" . c #F47E84",
"T  c #FCFE87",
"m. c #64666C",
"w  c #9495FC",
"Z. c #140E11",
"X  c #FCF6F4",
"J  c #CC7E7C",
"f. c #F40204",
")  c #FCFE97",
"^. c #1C1C1D",
"/  c #2C2BF9",
"9  c #D4D6FC",
"L  c #E4B4B4",
".. c #3C32BC",
"t  c #ECC5C2",
"X. c #FCFEA9",
"). c #1C161C",
"-. c #FC7A7C",
"}  c #F9A2A1",
"8  c #F7E3E4",
"@  c #DCDEFC",
"b  c #D4CF78",
"I  c #EC8A94",
"G  c #FCFEB8",
"+  c #E4E6F4",
"4. c #FC3C3C",
"U  c #B4B76C",
"F. c #9C9C9C",
"=  c #7C76D4",
"-  c #7474FC",
"T. c #B4B2E0",
"x. c #C4C5C5",
"0  c #B47AAC",
"7. c #CC6664",
"&. c #3024BC",
"]. c #2C2C2C",
"!  c #FAACAC",
"8. c #FC3334",
"m  c #FCFBC9",
"*  c #847ED4",
"u  c #7C7CFC",
"E  c #FCD5D1",
"$X c #C2C2BC",
"e. c #FC2D2C",
"%  c #8C86CC",
"v. c #2C262C",
"I. c #0C0B0C",
"M. c #A49E9C",
"y  c #8484FC",
"oX c #ACB2B4",
"H  c #CCC94D",
"#  c #948ECC",
"s  c #5453F8",
/* pixels */
"                                                                                                                        ",
"                                                            .                                                           ",
"  X   X   X   X   X   X   X   X   X   X   X   X   X   X         X                                                       ",
"    X                               X                 o O O + o O o o X X   X     X     X   X     X     X   X     X     ",
"        X   X   X       X               X   X   X @ # $ % & % * = - ; : > X   X     X         X     X         X       X ",
"      X       X       X               X       X , = < 1 < < < > 2 3 3 4 5 6 X   X         X       X               X     ",
"            X       X       X           X   X   6 7 8 9 < < 3 3 3 0 q w e *   X     X       X         X   X         X   ",
"                X         X       X X       X   r 4 + t 2 3 3 q 0 w y y e *       X       X           X     X   X       ",
"  X   X X           X       X   X               r % @ < 3 q 0 w 4 u - - i y X           X     X   X     X               ",
"  X         X         X     X                 . p = a < w 4 y u - s d f g ; X X X X   X             X         X     X   ",
"              X           X       X X X   X     > h j 2 y * = e d i d k l p z x c c v b b x X         X   X     X       ",
"    X     X       X   X         X             X 2 5 < 2 = e e i d g * n m . n M M N N B N V c     X         X           ",
"        X       X       X         8 C C Z C A S D g 2 0 e s i f F F C G X G m M N B N B B B H 8               X   X     ",
"X           X         X       X 1 J K L K S P I k i 3 4 d i g F F F U m Y m N N B B B T B R H ,     X   X   X           ",
"    X           X         X X   A L O E W Q ! ~ 0 ^ w u g F F / ( ( C ) Y N N B B R B R _ ` ' ]                 X   X   ",
"              X       X         [ W { Q ! } | |  .../ i / ( ( ^ ^ ^ U X.O N B R R B _ o._ O.+.]             X           ",
"  X   X     X           X       [ @.{ ~ } #.|  .$.%.i &.&.&.&.&.&.&.U B ] R *.B R O.o.=.=.o.+.8     X         X         ",
"      X           X   X         J ! { ! | $.-.;.:.>.,.<.1.@., 8 8 { H *.M B B o.O.V =.=.=.2.+.M         X         X     ",
"  X       X               X     %.#.E } $. .;.>.3.4.3.4.5.t X     X H *.] o.o.=.=.=.2.2.2.6.+.8               X       X ",
"        X                     . 7.I Q | ;.:.>.4.4.4.8.4.9.t   X X 8 H *.N o.V =.=.=.6.=.6.0.q.]   Y         X           ",
"            X X   X   X         w.%.Q $.>.,.4.4.e.8.e.e.r.t.X X   X H V M y.2.2.2.6.O.0.0.0.+.{     Y           X   X   ",
"    X     X       X     X   X   u.:.! :.3.4.8.e.i.i.i.i.p.@.  a.X X b 6.V 2.=.6.2.0.0.6.0.q.+.Y               X         ",
"      X             X           u.>.! >.4.8.e.i.s.d.d.d.p.t   X X X , b +.+.+.+.+.+.+.+.+.+.8   X         X     X       ",
"    X         X   X     X   X X %.1.;.,.e.e.i.s.d.d.d.f.9.o . X a.X X   , M { M { ] { 8 { ,                 X           ",
"  X     X   X             X     8 u.g.r.h.g.g.g.g.g.g.r.K   X   a.  X X   X   X   X Y       X         X         X     X ",
"      X         X       X       X X t L @.L @.L ! L @.1   X X a.  . a.  a.  X   X     X                       X         ",
"                    X     X   X     X     X   X         X X X a.X   a.a.  X .   a.        X     X   Y             X     ",
"      X     X     X       X       X   X   X X X X   X X X . X   . X .   X . a.  X X   X                                 ",
"          X       X   X       X       X     X     X     X .   a.  X a.  a.    a.  . X   Y     Y                     X   ",
"        X       X                 X   X   a.a.a.X a.X   .   X X a.  a.X . X X . X Y                             X       ",
"    X       X     X X   X   X       X                   X o   X   a.        a.  .   X X                   X             ",
"  X   X   X   X X X     X     X , r j.j.k.l.z.x.c.l.j.o v.b.  a.a.a.n.m.M.  a.a.a.a.N.  . X   Y   Y   B.    X     X     ",
"      X             X       X     V.C.V.l.Z.C.A.A.C.S.X b.A.  X     D.C.F.                          M.G.                ",
"  X 6 M.H.  A.J.k.D.K.c.L.l.  P.M.k.C.F.X v.I.X U.Y.  T.H.x.  + J.R.P.C.E.  W.D.Q.!.~.o ] !.R.!.o F.Z.^.L.X F.P.Y.M.X   ",
"    M.C.V.  /.(.t.C.L.M.C.(.P.Y.z.1 C.S.6 C.C.K.b.z., V.C.U.X (.).T.v.Z.8 + ^._.`.^.'.W.^.D.v C.M.F.C.~.z.L.C.L.M.V.X X ",
"    O C.L., I.S.  (.J.  P.I.H.    o Z.V.D.P.I.S.P.X   H.C.8 M.C.j.  _.].. ~.C.k.Y /.R.D.C.!.[.[.] n.C.W.Y L.C.Z.D k.    ",
"    l.C.6 8 C.{.X ^.1 O _.I.D   N.. }.C.J.6 C.Z.t.X   Y.^.  |.C., K.C.m.  }.C.  c.C.L. X'..XW.k.. Q.'.X o k.z.Q.C.v.    ",
"a.X U.C.V.b.C.v.(.M.% I.M.Y.C. Xx.  [.C.+ 1 C.Y.X X   _.C.m.XXC.R.b.C.'.A.oXC.[.}.C.oXA.C.~.m.[.. }.C.[.S.I.~.L.C.H.    ",
"  . a.F.L.6 U.L.r X OXn.X + A.{.a.. r {.. . F.K.X a.  E.L.oXa.r ~.E.T.H.E.oXU.F.R.C.W.. oX~.F.. . k.L.n.N.x.L.~.c.X   X ",
"a.  X             X   X         . X     . X       . X                 . a I.[.~.'.H.  .     . . .           Y     X     ",
"        X   X X a.  X     X         X .         X a.  a.X X a.  X .     . +XA.A.@X. . .         . . .           , .     ",
"X + A.A.X a.  o     a.. O   l.H.U.L.o X X K.k.c.!.W.    o a.  o . . . F.F.E.n.+XoX!.@X+ H.L.c.a.      x.F.F.W.N.n.W.c.  ",
"  S.{.a S.~.H.!.H.D.XXD.A.@ L.R.G.~.oX!.F.~.A.S.J.H.L.J.J.J.m.P.A.. H.H..XL.|.E.A.G.. @X~.A.n.!.#XH.L.!.n.|.!.OXH.A.~.. ",
"  D.M.c.P.k.P.J.S.[.m.R.G.E.}.XX@Xm.~.Q.S.S.T.H.H.P.J.R.@ L.|.|.~.. H.L.~.L.m.`.A.m.. . G..XH.~.R.Q.!.Q.F.R.}.oX|.L.A.  ",
"  O l.W.k.X W.c.o 6 B.6 B.  $X@X. E.+X.X+Xz.S.A., z.8 @ a.+X9 @XE.. . v E.@X.X+X+XE.. @X.X@X@X.X. E.+X@XE.@XE.+XE.+XE.. ",
"X                         N.  . . . .   . N.1   X   X     . . . . . . . . . . . . . . . . . . . . . . . . . . . . . . . "
};
